<svg width="900" height="360" viewBox="0 0 900 360" fill="none" xmlns="http://www.w3.org/2000/svg">
  <rect width="900" height="360" rx="28" fill="#F8FCFD"/>

  <defs>
    <linearGradient id="lumiGrad" x1="0" y1="0" x2="1" y2="1">
      <stop offset="0%" stop-color="#BFEFF7"/>
      <stop offset="55%" stop-color="#F8F7E8"/>
      <stop offset="100%" stop-color="#FFE4B8"/>
    </linearGradient>
    <linearGradient id="buttonGrad" x1="0" y1="0" x2="1" y2="1">
      <stop offset="0%" stop-color="#7ED6E4"/>
      <stop offset="100%" stop-color="#47B8C8"/>
    </linearGradient>
  </defs>

  <!-- App -->
  <rect x="55" y="95" width="210" height="135" rx="24" fill="white" stroke="#D8E8EC"/>
  <circle cx="95" cy="132" r="22" fill="url(#lumiGrad)"/>
  <text x="132" y="128" font-family="Inter, Arial" font-size="22" font-weight="700" fill="#1F2933">Lumi App</text>
  <text x="132" y="154" font-family="Inter, Arial" font-size="14" fill="#667085">Flutter mobile UI</text>
  <text x="80" y="196" font-family="Inter, Arial" font-size="14" fill="#667085">Profile · Visit context · Map</text>

  <!-- Backend -->
  <rect x="345" y="95" width="210" height="135" rx="24" fill="white" stroke="#D8E8EC"/>
  <rect x="375" y="118" width="54" height="54" rx="16" fill="url(#buttonGrad)"/>
  <text x="452" y="128" font-family="Inter, Arial" font-size="22" font-weight="700" fill="#1F2933">Backend</text>
  <text x="452" y="154" font-family="Inter, Arial" font-size="14" fill="#667085">WebSocket API</text>
  <text x="370" y="196" font-family="Inter, Arial" font-size="14" fill="#667085">Context builder · Ranking</text>

  <!-- Data -->
  <rect x="635" y="95" width="210" height="135" rx="24" fill="white" stroke="#D8E8EC"/>
  <circle cx="675" cy="132" r="22" fill="#FFE4B8"/>
  <text x="712" y="128" font-family="Inter, Arial" font-size="22" font-weight="700" fill="#1F2933">Urban Data</text>
  <text x="712" y="154" font-family="Inter, Arial" font-size="14" fill="#667085">NYC Open Data</text>
  <text x="660" y="196" font-family="Inter, Arial" font-size="14" fill="#667085">Crime · Lighting · Location</text>

  <!-- Arrows -->
  <path d="M270 162H335" stroke="#47B8C8" stroke-width="4" stroke-linecap="round"/>
  <path d="M325 150L340 162L325 174" stroke="#47B8C8" stroke-width="4" stroke-linecap="round" stroke-linejoin="round"/>

  <path d="M560 162H625" stroke="#47B8C8" stroke-width="4" stroke-linecap="round"/>
  <path d="M615 150L630 162L615 174" stroke="#47B8C8" stroke-width="4" stroke-linecap="round" stroke-linejoin="round"/>

  <!-- Bottom label -->
  <rect x="260" y="275" width="380" height="48" rx="24" fill="#EAF8FA"/>
  <text x="450" y="306" text-anchor="middle" font-family="Inter, Arial" font-size="16" font-weight="600" fill="#256B76">
    Safety-aware, explainable POI recommendations
  </text>
</svg>
